<?xml version="1.0" standalone="no"?>
<!DOCTYPE svg PUBLIC "-//W3C//DTD SVG 20010904//EN"
 "http://www.w3.org/TR/2001/REC-SVG-20010904/DTD/svg10.dtd">
<svg version="1.0" xmlns="http://www.w3.org/2000/svg"
 width="64.000000pt" height="64.000000pt" viewBox="0 0 64.000000 64.000000"
 preserveAspectRatio="xMidYMid meet">

<g transform="translate(0.000000,64.000000) scale(0.100000,-0.100000)"
fill="#000000" stroke="none">
<path d="M150 633 c-26 -10 -90 -64 -102 -86 -7 -12 -15 -65 -19 -117 -4 -52
-10 -108 -14 -123 -6 -21 -3 -33 13 -50 17 -18 22 -38 24 -102 l3 -80 70 3
c39 2 103 1 143 -3 66 -6 72 -9 72 -29 0 -40 18 -46 125 -45 147 1 148 2 158
79 18 143 13 170 -30 170 -23 0 -31 6 -40 30 -9 24 -17 30 -41 30 -57 0 -92
-12 -92 -31 0 -10 -4 -21 -10 -24 -6 -4 -10 6 -10 22 0 16 -6 37 -14 48 -8 12
-14 52 -15 103 -1 90 -15 135 -52 168 -41 36 -123 54 -169 37z m80 -178 c7 -8
21 -15 30 -15 41 0 50 -11 50 -60 0 -52 -15 -72 -68 -91 -18 -6 -33 -18 -33
-27 -1 -16 -2 -16 -6 0 -2 9 -18 21 -35 27 -53 19 -68 39 -68 92 0 45 2 49 28
54 15 3 38 12 52 20 33 18 35 18 50 0z m298 -204 c3 -25 0 -31 -10 -25 -7 4
-9 3 -5 -1 4 -5 28 -8 53 -6 l45 3 -3 -34 c-3 -31 -6 -33 -42 -36 -21 -2 -43
1 -49 7 -14 14 -64 14 -72 1 -3 -5 -26 -10 -51 -10 -44 0 -44 0 -44 36 l0 35
50 -2 c27 -2 53 1 57 6 5 4 2 5 -4 1 -9 -5 -13 1 -13 22 0 38 7 44 50 40 32
-3 35 -6 38 -37z m-372 -42 c13 -12 35 -21 49 -21 14 0 36 9 49 21 12 11 32
21 43 21 17 0 22 -8 26 -42 2 -24 8 -53 12 -65 l7 -23 -136 0 -136 0 0 53 c0
29 5 58 12 65 18 18 49 14 74 -9z m74 11 c0 -5 -9 -10 -19 -10 -11 0 -23 5
-26 10 -4 6 5 10 19 10 14 0 26 -4 26 -10z m260 -95 c0 -8 -4 -15 -10 -15 -5
0 -10 7 -10 15 0 8 5 15 10 15 6 0 10 -7 10 -15z m-50 -25 c0 -30 69 -29 77 1
5 16 12 19 42 17 35 -3 36 -4 36 -43 l0 -40 -117 -3 -118 -3 0 46 0 45 40 0
c33 0 40 -3 40 -20z"/>
<path d="M120 411 c0 -5 7 -14 15 -21 12 -10 19 -10 28 -1 9 9 9 14 -3 21 -19
12 -40 13 -40 1z"/>
<path d="M258 413 c-20 -5 -23 -18 -8 -28 12 -7 40 12 40 26 0 9 -4 10 -32 2z"/>
<path d="M183 338 c5 -17 39 -17 45 0 2 7 -6 12 -23 12 -17 0 -25 -5 -22 -12z"/>
</g>
</svg>
